<svg width="369.4625px" height="137.6px" xmlns="http://www.w3.org/2000/svg" viewBox="65.26875000000001 6.200000000000003 369.4625 137.6" style="background: rgba(0, 0, 0, 0);" preserveAspectRatio="xMidYMid"><defs><linearGradient id="editing-outline-gradient" x1="-0.41354545764260087" x2="1.4135454576426008" y1="0.09326335692419985" y2="0.9067366430758002"><stop offset="0" stop-color="#ee4208"></stop><stop offset="1" stop-color="#4139ff"></stop></linearGradient><filter id="editing-outline" x="-100%" y="-100%" width="300%" height="300%"><feMorphology in="SourceGraphic" operator="dilate" radius="1" result="outline"></feMorphology><feComposite operator="out" in="outline" in2="SourceAlpha"></feComposite></filter></defs><g filter="url(#editing-outline)"><g transform="translate(121.80998992919922, 98.58500289916992)"><path d="M23.23-44.80L23.23-44.80Q31.68-44.80 37.12-41.38L37.12-41.38L37.12-41.38Q42.56-37.95 42.69-31.23L42.69-31.23L42.69-30.46L29.44-30.46L29.44-30.72L29.44-30.72Q29.44-32.64 28.03-33.92L28.03-33.92L28.03-33.92Q26.62-35.20 23.74-35.20L23.74-35.20L23.74-35.20Q20.93-35.20 19.42-34.37L19.42-34.37L19.42-34.37Q17.92-33.54 17.92-32.32L17.92-32.32L17.92-32.32Q17.92-30.59 19.97-29.76L19.97-29.76L19.97-29.76Q22.02-28.93 26.56-28.03L26.56-28.03L26.56-28.03Q31.87-26.94 35.30-25.76L35.30-25.76L35.30-25.76Q38.72-24.58 41.28-21.89L41.28-21.89L41.28-21.89Q43.84-19.20 43.90-14.59L43.90-14.59L43.90-14.59Q43.90-6.78 38.62-3.01L38.62-3.01L38.62-3.01Q33.34 0.77 24.51 0.77L24.51 0.77L24.51 0.77Q14.21 0.77 8.48-2.69L8.48-2.69L8.48-2.69Q2.75-6.14 2.75-14.91L2.75-14.91L16.13-14.91L16.13-14.91Q16.13-11.58 17.86-10.46L17.86-10.46L17.86-10.46Q19.58-9.34 23.23-9.34L23.23-9.34L23.23-9.34Q25.92-9.34 27.68-9.92L27.68-9.92L27.68-9.92Q29.44-10.50 29.44-12.29L29.44-12.29L29.44-12.29Q29.44-13.89 27.49-14.69L27.49-14.69L27.49-14.69Q25.54-15.49 21.12-16.38L21.12-16.38L21.12-16.38Q15.74-17.54 12.22-18.78L12.22-18.78L12.22-18.78Q8.70-20.03 6.08-22.91L6.08-22.91L6.08-22.91Q3.46-25.79 3.46-30.72L3.46-30.72L3.46-30.72Q3.46-37.95 9.06-41.38L9.06-41.38L9.06-41.38Q14.66-44.80 23.23-44.80L23.23-44.80ZM67.52-34.56L67.52-34.56Q76.42-34.56 81.50-30.05L81.50-30.05L81.50-30.05Q86.59-25.54 86.59-16.90L86.59-16.90L86.59-16.90Q86.59-8.26 81.50-3.74L81.50-3.74L81.50-3.74Q76.42 0.77 67.52 0.77L67.52 0.77L67.52 0.77Q58.62 0.77 53.57-3.71L53.57-3.71L53.57-3.71Q48.51-8.19 48.51-16.90L48.51-16.90L48.51-16.90Q48.51-25.60 53.57-30.08L53.57-30.08L53.57-30.08Q58.62-34.56 67.52-34.56L67.52-34.56ZM67.52-25.92L67.52-25.92Q61.25-25.92 61.25-18.69L61.25-18.69L61.25-15.04L61.25-15.04Q61.25-7.87 67.52-7.87L67.52-7.87L67.52-7.87Q73.86-7.87 73.86-15.04L73.86-15.04L73.86-18.69L73.86-18.69Q73.86-25.92 67.52-25.92L67.52-25.92ZM105.92 0L93.18 0L93.18-46.40L105.92-46.40L105.92 0ZM158.78 0L144.64 0L144.64-16.70L129.09-16.70L129.09 0L114.94 0L114.94-44.03L129.09-44.03L129.09-27.97L144.64-27.97L144.64-44.03L158.78-44.03L158.78 0ZM180.54-37.76L167.81-37.76L167.81-46.40L180.54-46.40L180.54-37.76ZM180.54 0L167.81 0L167.81-33.79L180.54-33.79L180.54 0ZM209.22-34.62L209.22-34.62Q210.69-34.62 211.84-34.27L211.84-34.27L211.84-34.27Q212.99-33.92 212.99-33.86L212.99-33.86L212.99-23.17L208.90-23.17L208.90-23.17Q204.93-23.17 203.17-21.12L203.17-21.12L203.17-21.12Q201.41-19.07 201.41-15.04L201.41-15.04L201.41 0L188.67 0L188.67-33.79L199.10-33.79L199.94-28.67L199.94-28.67Q201.09-31.62 203.58-33.12L203.58-33.12L203.58-33.12Q206.08-34.62 209.22-34.62L209.22-34.62ZM234.56-34.56L234.56-34.56Q243.84-34.56 248.74-30.21L248.74-30.21L248.74-30.21Q253.63-25.86 253.63-16.90L253.63-16.90L253.63-14.72L228.29-14.72L228.29-14.72Q228.29-11.07 229.92-9.22L229.92-9.22L229.92-9.22Q231.55-7.36 235.07-7.36L235.07-7.36L235.07-7.36Q238.27-7.36 239.78-8.70L239.78-8.70L239.78-8.70Q241.28-10.05 241.28-12.29L241.28-12.29L253.63-12.29L253.63-12.29Q253.63-6.14 248.96-2.69L248.96-2.69L248.96-2.69Q244.29 0.77 235.33 0.77L235.33 0.77L235.33 0.77Q225.92 0.77 220.74-3.62L220.74-3.62L220.74-3.62Q215.55-8 215.55-16.90L215.55-16.90L215.55-16.90Q215.55-25.60 220.61-30.08L220.61-30.08L220.61-30.08Q225.66-34.56 234.56-34.56L234.56-34.56ZM235.07-26.43L235.07-26.43Q229.06-26.43 228.35-20.74L228.35-20.74L240.77-20.74L240.77-20.74Q240.77-23.36 239.26-24.90L239.26-24.90L239.26-24.90Q237.76-26.43 235.07-26.43L235.07-26.43Z" fill="url(#editing-outline-gradient)"></path></g></g><style>text {
  font-size: 64px;
  font-family: Arial Black;
  dominant-baseline: central;
  text-anchor: middle;
}</style></svg>